<svg xmlns="http://www.w3.org/2000/svg" width="55" height="55" viewBox="0 0 55 55">
    <path fill="#FFF" fill-rule="evenodd" d="M54.524 52.195L41.156 38.829a23.354 23.354 0 0 0 5.757-15.378C46.913 10.512 36.386 0 23.456 0 10.515 0 0 10.524 0 23.451c0 12.927 10.527 23.451 23.456 23.451 5.88 0 11.259-2.17 15.382-5.755l13.368 13.365a1.66 1.66 0 0 0 1.16.488c.414 0 .84-.158 1.158-.488a1.65 1.65 0 0 0 0-2.317zM3.437 23.627c0-11.14 9.066-20.19 20.196-20.19 11.142 0 20.195 9.063 20.195 20.19 0 11.126-9.053 20.201-20.195 20.201-11.13 0-20.195-9.062-20.195-20.201z"/>
</svg>
