<svg xmlns="http://www.w3.org/2000/svg" xmlns:xlink="http://www.w3.org/1999/xlink" width="56" height="41" viewBox="0 0 56 41">
    <defs>
        <path id="a" d="M27.642 41H0V.006h55.283V41z"/>
    </defs>
    <g fill="none" fill-rule="evenodd">
        <mask id="b" fill="#fff">
            <use xlink:href="#a"/>
        </mask>
        <path fill="#C7202F" d="M54.388 39.164h-5.79v-8.04c2.173-.408 3.82-2.272 3.82-4.505 0-1.13-.441-3.942-1.153-6.518-1.022-3.694-2.154-5.414-3.563-5.414-1.41 0-2.542 1.72-3.564 5.414-.712 2.576-1.153 5.389-1.153 6.518 0 2.233 1.647 4.097 3.821 4.506v8.04h-5.851V16.37a2.875 2.875 0 0 0 1.91-2.725V9.73c0-.507-.4-.918-.895-.918h-1.015V7.71h1.97c.495 0 .896-.41.896-.918a.907.907 0 0 0-.895-.918h-5.732a.907.907 0 0 0-.896.918c0 .508.402.918.896.918h1.97v1.102H38.15a.906.906 0 0 0-.896.918v3.916c0 1.265.801 2.342 1.91 2.725v22.793h-3.13l-.61-3.06h.815a.907.907 0 0 0 .895-.917.907.907 0 0 0-.895-.918h-1.97v-2.081h1.014c.495 0 .896-.41.896-.918 0-.507-.4-.918-.896-.918H34.27V29.25h1.014a.907.907 0 0 0 .896-.918c0-.507-.4-.918-.896-.918H18.09a.907.907 0 0 0-.895.918c0 .507.401.918.895.918h1.015v1.1H18.09a.907.907 0 0 0-.895.919c0 .507.401.918.895.918h1.015v2.08h-1.97a.907.907 0 0 0-.895.919c0 .506.4.917.895.917h.814l-.608 3.06h-6.952v-8.99c3.76-.456 6.686-3.741 6.686-7.716 0-6.895-6.493-21.316-6.77-21.927A.894.894 0 0 0 9.494 0a.895.895 0 0 0-.813.531c-.276.611-6.77 15.032-6.77 21.927 0 3.975 2.927 7.26 6.687 7.716v8.99H.896a.907.907 0 0 0-.896.918c0 .507.401.918.896.918h53.492a.907.907 0 0 0 .895-.918c0-.507-.4-.918-.895-.918zM44.776 26.62c0-.818.351-3.268 1.01-5.737.957-3.593 1.762-4.252 1.916-4.348.153.096.958.755 1.916 4.348.658 2.47 1.009 4.919 1.009 5.737 0 1.225-.854 2.265-2.03 2.621v-1.886a.907.907 0 0 0-.895-.918.907.907 0 0 0-.896.918v1.886c-1.176-.356-2.03-1.396-2.03-2.62zm-5.73-15.97h2.028v2.997a1.03 1.03 0 0 1-1.015 1.04c-.559 0-1.014-.466-1.014-1.04v-2.998zM3.701 22.458c0-5.095 4.025-15.132 5.79-19.286 1.766 4.154 5.791 14.19 5.791 19.285 0 2.961-2.125 5.422-4.895 5.865v-5.485l2.603-2.668a.934.934 0 0 0 0-1.298.88.88 0 0 0-1.266 0l-1.337 1.37v-1.7a.907.907 0 0 0-.895-.918.907.907 0 0 0-.896.918v4.638L7.26 21.81a.88.88 0 0 0-1.267 0 .934.934 0 0 0 0 1.297l2.604 2.669v2.547c-2.77-.443-4.895-2.904-4.895-5.865zm17.194 7.893h11.582V29.25H20.896v1.1zm0 3.917h11.582v-2.081H20.896v2.08zm-1.12 1.835h13.821l.608 3.06H19.168l.608-3.06z" mask="url(#b)"/>
    </g>
</svg>
