<svg xmlns="http://www.w3.org/2000/svg" xmlns:xlink="http://www.w3.org/1999/xlink" width="39" height="41" viewBox="0 0 39 41">
    <defs>
        <path id="a" d="M39 2.758v2.7H.005v-5.4H39z"/>
        <path id="c" d="M.005.021v25.552h35.694V.021H.005z"/>
    </defs>
    <g fill="none" fill-rule="evenodd">
        <g transform="translate(0 34.846)">
            <mask id="b" fill="#fff">
                <use xlink:href="#a"/>
            </mask>
            <path fill="#C7202F" d="M1.3 4.108h36.4v-2.7H1.3v2.7zm37.05 1.35H.65c-.39 0-.65-.27-.65-.675V.733C0 .328.26.058.65.058h37.7c.39 0 .65.27.65.675v4.05c0 .405-.26.675-.65.675z" mask="url(#b)"/>
        </g>
        <path fill="#C7202F" d="M1.732 34.766h9.942V9.316H1.732v25.45zm10.605 1.34H1.07c-.398 0-.663-.268-.663-.67V8.646c0-.401.265-.67.663-.67h11.268c.398 0 .663.269.663.67v26.79c0 .402-.265.67-.663.67zM27.326 34.772h9.942V14.768h-9.942v20.004zm10.605 1.334H26.663c-.398 0-.663-.267-.663-.667V14.1c0-.4.265-.666.663-.666H37.93c.398 0 .663.266.663.666V35.44c0 .4-.265.667-.663.667z"/>
        <path fill="#C7202F" d="M13.068 34.762h12.864v-30.9H13.068v30.9zm13.508 1.344H12.424c-.385 0-.643-.27-.643-.672V3.19c0-.403.258-.672.643-.672h14.152c.385 0 .643.269.643.672v32.243c0 .403-.258.672-.643.672z"/>
        <path fill="#C7202F" d="M15.496 8.257h1.915v-1.4h-1.915v1.4zm2.553 1.4h-3.192c-.383 0-.638-.28-.638-.7v-2.8c0-.42.255-.7.638-.7h3.192c.383 0 .639.28.639.7v2.8c0 .42-.256.7-.639.7zM21.59 8.257h1.914v-1.4H21.59v1.4zm2.553 1.4H20.95c-.383 0-.639-.28-.639-.7v-2.8c0-.42.256-.7.639-.7h3.192c.383 0 .638.28.638.7v2.8c0 .42-.255.7-.638.7zM15.496 13.715h1.915v-1.4h-1.915v1.4zm2.553 1.399h-3.192c-.383 0-.638-.28-.638-.7v-2.799c0-.42.255-.7.638-.7h3.192c.383 0 .639.28.639.7v2.8c0 .42-.256.699-.639.699zM21.59 13.715h1.914v-1.4H21.59v1.4zm2.553 1.399H20.95c-.383 0-.639-.28-.639-.7v-2.799c0-.42.256-.7.639-.7h3.192c.383 0 .638.28.638.7v2.8c0 .42-.255.699-.638.699zM15.496 18.752h1.915v-1.399h-1.915v1.4zm2.553 1.4h-3.192c-.383 0-.638-.28-.638-.7v-2.799c0-.42.255-.7.638-.7h3.192c.383 0 .639.28.639.7v2.8c0 .42-.256.699-.639.699zM21.59 18.752h1.914v-1.399H21.59v1.4zm2.553 1.4H20.95c-.383 0-.639-.28-.639-.7v-2.799c0-.42.256-.7.639-.7h3.192c.383 0 .638.28.638.7v2.8c0 .42-.255.699-.638.699zM15.496 24.21h1.915v-1.4h-1.915v1.4zm2.553 1.4h-3.192c-.383 0-.638-.28-.638-.7v-2.799c0-.42.255-.7.638-.7h3.192c.383 0 .639.28.639.7v2.799c0 .42-.256.7-.639.7zM21.59 24.21h1.914v-1.4H21.59v1.4zm2.553 1.4H20.95c-.383 0-.639-.28-.639-.7v-2.799c0-.42.256-.7.639-.7h3.192c.383 0 .638.28.638.7v2.799c0 .42-.255.7-.638.7zM15.496 29.668h1.915v-1.4h-1.915v1.4zm2.553 1.4h-3.192c-.383 0-.638-.28-.638-.7v-2.799c0-.42.255-.7.638-.7h3.192c.383 0 .639.28.639.7v2.799c0 .42-.256.7-.639.7zM21.59 29.668h1.914v-1.4H21.59v1.4zm2.553 1.4H20.95c-.383 0-.639-.28-.639-.7v-2.799c0-.42.256-.7.639-.7h3.192c.383 0 .638.28.638.7v2.799c0 .42-.255.7-.638.7zM4.527 13.715h1.915v-1.4H4.527v1.4zm2.553 1.399H3.888c-.383 0-.638-.28-.638-.7v-2.799c0-.42.255-.7.638-.7H7.08c.383 0 .639.28.639.7v2.8c0 .42-.256.699-.639.699zM10.292 13.715h1.354v-1.4h-1.354v1.4zm2.03 1.399H9.616c-.407 0-.678-.28-.678-.7v-2.799c0-.42.271-.7.678-.7h2.708c.406 0 .677.28.677.7v2.8c0 .42-.27.699-.677.699zM4.527 18.752h1.915v-1.399H4.527v1.4zm2.553 1.4H3.888c-.383 0-.638-.28-.638-.7v-2.799c0-.42.255-.7.638-.7H7.08c.383 0 .639.28.639.7v2.8c0 .42-.256.699-.639.699zM10.292 18.752h1.354v-1.399h-1.354v1.4zm2.03 1.4H9.616c-.407 0-.678-.28-.678-.7v-2.799c0-.42.271-.7.678-.7h2.708c.406 0 .677.28.677.7v2.8c0 .42-.27.699-.677.699zM4.527 24.21h1.915v-1.4H4.527v1.4zm2.553 1.4H3.888c-.383 0-.638-.28-.638-.7v-2.799c0-.42.255-.7.638-.7H7.08c.383 0 .639.28.639.7v2.799c0 .42-.256.7-.639.7zM10.292 24.21h1.354v-1.4h-1.354v1.4zm2.03 1.4H9.616c-.407 0-.678-.28-.678-.7v-2.799c0-.42.271-.7.678-.7h2.708c.406 0 .677.28.677.7v2.799c0 .42-.27.7-.677.7zM4.527 29.668h1.915v-1.4H4.527v1.4zm2.553 1.4H3.888c-.383 0-.638-.28-.638-.7v-2.799c0-.42.255-.7.638-.7H7.08c.383 0 .639.28.639.7v2.799c0 .42-.256.7-.639.7zM10.292 29.668h1.354v-1.4h-1.354v1.4zm2.03 1.4H9.616c-.407 0-.678-.28-.678-.7v-2.799c0-.42.271-.7.678-.7h2.708c.406 0 .677.28.677.7v2.799c0 .42-.27.7-.677.7zM27.354 18.752h1.354v-1.399h-1.354v1.4zm2.031 1.4h-2.708c-.406 0-.677-.28-.677-.7v-2.799c0-.42.27-.7.677-.7h2.708c.407 0 .677.28.677.7v2.8c0 .42-.27.699-.677.699zM32.558 18.752h1.915v-1.399h-1.915v1.4zm2.554 1.4H31.92c-.383 0-.639-.28-.639-.7v-2.799c0-.42.256-.7.639-.7h3.192c.383 0 .638.28.638.7v2.8c0 .42-.255.699-.638.699zM27.354 24.21h1.354v-1.4h-1.354v1.4zm2.031 1.4h-2.708c-.406 0-.677-.28-.677-.7v-2.799c0-.42.27-.7.677-.7h2.708c.407 0 .677.28.677.7v2.799c0 .42-.27.7-.677.7zM32.558 24.21h1.915v-1.4h-1.915v1.4zm2.554 1.4H31.92c-.383 0-.639-.28-.639-.7v-2.799c0-.42.256-.7.639-.7h3.192c.383 0 .638.28.638.7v2.799c0 .42-.255.7-.638.7zM27.354 29.668h1.354v-1.4h-1.354v1.4zm2.031 1.4h-2.708c-.406 0-.677-.28-.677-.7v-2.799c0-.42.27-.7.677-.7h2.708c.407 0 .677.28.677.7v2.799c0 .42-.27.7-.677.7z"/>
        <g transform="translate(0 5.458)">
            <mask id="d" fill="#fff">
                <use xlink:href="#c"/>
            </mask>
            <path fill="#C7202F" d="M32.454 24.228H34.4v-1.345h-1.947v1.345zm2.596 1.345h-3.245c-.39 0-.65-.269-.65-.672v-2.69c0-.404.26-.673.65-.673h3.245c.39 0 .65.27.65.673v2.69c0 .403-.26.672-.65.672zM1.298 2.71h10.385V1.367H1.298V2.71zm11.034 1.346H.65c-.39 0-.649-.27-.649-.673V.693C0 .29.26.021.65.021h11.682c.39 0 .65.269.65.672v2.69c0 .404-.26.673-.65.673z" mask="url(#d)"/>
        </g>
        <path fill="#C7202F" d="M12.281 2.799H26.72v-1.4H12.28v1.4zm15.094 1.4h-15.75c-.394 0-.656-.28-.656-.7v-2.8c0-.42.262-.699.656-.699h15.75c.394 0 .656.28.656.7v2.799c0 .42-.262.7-.656.7zM27.3 13.715h10.4v-1.4H27.3v1.4zm11.05 1.399h-11.7c-.39 0-.65-.28-.65-.7v-2.799c0-.42.26-.7.65-.7h11.7c.39 0 .65.28.65.7v2.8c0 .42-.26.699-.65.699z"/>
    </g>
</svg>
