<svg xmlns="http://www.w3.org/2000/svg" xmlns:xlink="http://www.w3.org/1999/xlink" width="40" height="41" viewBox="0 0 40 41">
    <defs>
        <path id="a" d="M.005.075V1.44H40V.075z"/>
    </defs>
    <g fill="none" fill-rule="evenodd">
        <g transform="translate(0 39.535)">
            <mask id="b" fill="#fff">
                <use xlink:href="#a"/>
            </mask>
            <path fill="#C7202F" d="M39.333 1.44H.667C.267 1.44 0 1.168 0 .759 0 .348.267.075.667.075h38.666c.4 0 .667.273.667.683 0 .41-.267.683-.667.683" mask="url(#b)"/>
        </g>
        <path fill="#C7202F" d="M5.333 39.61h29.334V4.098H5.333V39.61zm30 1.366H4.667c-.4 0-.667-.274-.667-.683V3.415c0-.41.267-.683.667-.683h30.666c.4 0 .667.273.667.683v36.878c0 .41-.267.683-.667.683z"/>
        <path fill="#C7202F" d="M3.333 2.732h33.334V1.366H3.333v1.366zm34 1.366H2.667c-.4 0-.667-.274-.667-.683V.683C2 .273 2.267 0 2.667 0h34.666c.4 0 .667.273.667.683v2.732c0 .41-.267.683-.667.683zM16.667 39.61h6.666V28.683h-6.666V39.61zM24 40.976h-8c-.4 0-.667-.274-.667-.683V28c0-.41.267-.683.667-.683h8c.4 0 .667.273.667.683v12.293c0 .41-.267.683-.667.683zM13.333 12.293h4V8.195h-4v4.098zM18 13.659h-5.333c-.4 0-.667-.274-.667-.683V7.512c0-.41.267-.683.667-.683H18c.4 0 .667.273.667.683v5.464c0 .41-.267.683-.667.683zM8 32.78h4.667v-4.097H8v4.097zm5.333 1.366h-6c-.4 0-.666-.273-.666-.683V28c0-.41.266-.683.666-.683h6c.4 0 .667.273.667.683v5.463c0 .41-.267.683-.667.683zM27.333 32.78H32v-4.097h-4.667v4.097zm5.334 1.366h-6c-.4 0-.667-.273-.667-.683V28c0-.41.267-.683.667-.683h6c.4 0 .666.273.666.683v5.463c0 .41-.266.683-.666.683z"/>
        <path fill="#C7202F" d="M8 12.293h4V8.195H8v4.098zm4.667 1.366H7.333c-.4 0-.666-.274-.666-.683V7.512c0-.41.266-.683.666-.683h5.334c.4 0 .666.273.666.683v5.464c0 .41-.266.683-.666.683zM28 12.293h4V8.195h-4v4.098zm4.667 1.366h-5.334c-.4 0-.666-.274-.666-.683V7.512c0-.41.266-.683.666-.683h5.334c.4 0 .666.273.666.683v5.464c0 .41-.266.683-.666.683z"/>
        <path fill="#C7202F" d="M22.667 12.293h4V8.195h-4v4.098zm4.666 1.366H22c-.4 0-.667-.274-.667-.683V7.512c0-.41.267-.683.667-.683h5.333c.4 0 .667.273.667.683v5.464c0 .41-.267.683-.667.683zM13.333 21.854h4v-4.098h-4v4.098zM18 23.219h-5.333c-.4 0-.667-.273-.667-.682v-5.464c0-.41.267-.683.667-.683H18c.4 0 .667.273.667.683v5.464c0 .41-.267.682-.667.682z"/>
        <path fill="#C7202F" d="M8 21.854h4v-4.098H8v4.098zm4.667 1.365H7.333c-.4 0-.666-.273-.666-.682v-5.464c0-.41.266-.683.666-.683h5.334c.4 0 .666.273.666.683v5.464c0 .41-.266.682-.666.682zM28 21.854h4v-4.098h-4v4.098zm4.667 1.365h-5.334c-.4 0-.666-.273-.666-.682v-5.464c0-.41.266-.683.666-.683h5.334c.4 0 .666.273.666.683v5.464c0 .41-.266.682-.666.682z"/>
        <path fill="#C7202F" d="M22.667 21.854h4v-4.098h-4v4.098zm4.666 1.365H22c-.4 0-.667-.273-.667-.682v-5.464c0-.41.267-.683.667-.683h5.333c.4 0 .667.273.667.683v5.464c0 .41-.267.682-.667.682zM20 40.976c-.4 0-.667-.274-.667-.683V28c0-.41.267-.683.667-.683s.667.273.667.683v12.293c0 .41-.267.683-.667.683"/>
    </g>
</svg>
