<svg xmlns="http://www.w3.org/2000/svg" xmlns:xlink="http://www.w3.org/1999/xlink" width="64" height="55" viewBox="0 0 64 55">
    <defs>
        <path id="a" d="M0 0v55h64V0z"/>
    </defs>
    <g fill="none" fill-rule="evenodd">
        <mask id="b" fill="#fff">
            <use xlink:href="#a"/>
        </mask>
        <path fill="#FFF" d="M.006 27.507a3.094 3.094 0 0 0 2.218 2.8l23.445 7.072.862 16.123c.04.638.47 1.198 1.083 1.406.17.066.353.092.522.092.457 0 .888-.182 1.201-.534l8.29-9.156 11.748 8.114c.522.364 1.136.56 1.775.56a3.149 3.149 0 0 0 3.067-2.5l9.752-49.58A1.595 1.595 0 0 0 61.802.118L1.885 24.446c-1.214.548-1.958 1.746-1.88 3.06zm29.501 21.997l-.535-10.172 6.005 4.142-5.47 6.03zm21.591 1.237L29.716 35.972 59.7 7.034l-8.602 43.707zm5.313-44.983L26.766 34.37 3.348 27.312 56.41 5.758z" mask="url(#b)"/>
    </g>
</svg>
