<svg xmlns="http://www.w3.org/2000/svg" xmlns:xlink="http://www.w3.org/1999/xlink" width="63" height="61" viewBox="0 0 63 61">
    <defs>
        <path id="a" d="M.083.036v59.663h59.443V.036z"/>
    </defs>
    <g fill="none" fill-rule="evenodd">
        <path fill="#FFF" stroke="#FFF" stroke-width=".5" d="M61.043 35.171l-3.134-3.14a3.284 3.284 0 0 0-4.641 0L36.363 48.978l-2.333 8.57-.569.57a1.096 1.096 0 0 0-.005 1.549l-.006.022.02-.006c.21.21.49.317.768.317a1.1 1.1 0 0 0 .778-.322l.568-.575 8.548-2.333 16.911-16.948a3.304 3.304 0 0 0 0-4.651zM38.896 49.553l11.255-11.28 4.662 4.673-11.256 11.28-4.661-4.673zm-.988 2.118l3.536 3.55-4.867 1.327 1.331-4.877zm21.579-13.409l-3.118 3.13-4.661-4.672 3.116-3.13a1.092 1.092 0 0 1 1.534 0l3.129 3.14c.423.42.423 1.114 0 1.532z"/>
        <path fill="#FFF" stroke="#FFF" d="M28.917 12.857c-.62 0-1.124.476-1.124 1.075 0 .592.504 1.068 1.124 1.068h20.2c.62 0 1.124-.476 1.124-1.068 0-.599-.505-1.075-1.123-1.075H28.917zM50.241 30c0-.591-.505-1.071-1.123-1.071H28.917c-.62 0-1.124.48-1.124 1.071 0 .59.504 1.071 1.124 1.071h20.2c.62 0 1.124-.481 1.124-1.071zM23.13 7.76a1.145 1.145 0 0 0-1.573.114l-6.965 7.809-4.255-3.07a1.144 1.144 0 0 0-1.562.214 1.039 1.039 0 0 0 .223 1.497L14.092 18a1.145 1.145 0 0 0 1.517-.162l7.64-8.567a1.046 1.046 0 0 0-.12-1.512zM23.13 23.829a1.15 1.15 0 0 0-1.573.115l-6.965 7.81-4.255-3.071a1.148 1.148 0 0 0-1.562.215c-.369.47-.271 1.145.223 1.502l5.094 3.671a1.145 1.145 0 0 0 1.517-.162l7.64-8.569a1.047 1.047 0 0 0-.12-1.511z"/>
        <g>
            <mask id="b" fill="#fff">
                <use xlink:href="#a"/>
            </mask>
            <path fill="#FFF" stroke="#FFF" d="M21.132 40.196l-6.89 8.055-4.21-3.167a1.104 1.104 0 0 0-1.323 1.765l5.039 3.793c.198.145.43.22.661.22.313 0 .619-.135.84-.388l7.557-8.837a1.11 1.11 0 0 0-.118-1.56 1.105 1.105 0 0 0-1.556.12z" mask="url(#b)"/>
            <path fill="#FFF" stroke="#FFF" d="M27.559 57.493H13.424c-6.184 0-11.217-5.045-11.217-11.243V13.49C2.207 7.293 7.24 2.25 13.424 2.25h32.683c6.185 0 11.218 5.043 11.218 11.242v13.061a1.1 1.1 0 0 0 1.097 1.106c.61 0 1.104-.495 1.104-1.106V13.491c0-7.418-6.018-13.455-13.419-13.455H13.424C6.023.036 0 6.073 0 13.491V46.25c0 7.418 6.023 13.449 13.424 13.449h14.135a1.103 1.103 0 1 0 0-2.206z" mask="url(#b)"/>
        </g>
    </g>
</svg>
