<svg xmlns="http://www.w3.org/2000/svg" xmlns:xlink="http://www.w3.org/1999/xlink" width="40" height="41" viewBox="0 0 40 41">
    <defs>
        <path id="a" d="M37.44.063H.06V17.8h37.38z"/>
        <path id="c" d="M7.336 38.18H.005V.01h14.662v38.17z"/>
    </defs>
    <g fill="none" fill-rule="evenodd">
        <g transform="translate(1.25)">
            <mask id="b" fill="#fff">
                <use xlink:href="#a"/>
            </mask>
            <path fill="#C7202F" d="M18.75 1.443c-.667 0-1.4.273-1.933.818L1.483 16.166c-.066.068-.066.068-.066.136s.066.068.133.068h34.4s.067 0 .133-.068c.067-.068 0-.136-.066-.136L20.683 2.26a2.752 2.752 0 0 0-1.933-.818zm17.2 16.358H1.55c-.6 0-1.2-.409-1.4-.954a1.629 1.629 0 0 1 .4-1.704L15.883 1.24a4.082 4.082 0 0 1 5.734 0L36.95 15.143c.467.41.6 1.09.4 1.636-.2.545-.8 1.022-1.4 1.022z" mask="url(#b)"/>
        </g>
        <path fill="#C7202F" d="M5.333 2.806H12V1.443H5.333v1.363zm7.334 1.363h-8c-.4 0-.667-.272-.667-.681V.762c0-.41.267-.682.667-.682h8c.4 0 .666.273.666.682v2.726c0 .409-.266.681-.666.681zM16.667 39.612h6.666V28.025c0-1.908-1.466-3.408-3.333-3.408-1.867 0-3.333 1.5-3.333 3.408v11.587zM24 40.976h-8c-.4 0-.667-.273-.667-.682V28.025c0-2.658 2.067-4.77 4.667-4.77 2.6 0 4.667 2.112 4.667 4.77v12.269c0 .409-.267.682-.667.682zM7.333 25.98h5.334v-5.452H7.333v5.453zm6 1.364H6.667c-.4 0-.667-.273-.667-.682v-6.816c0-.409.267-.681.667-.681h6.666c.4 0 .667.272.667.681v6.816c0 .41-.267.682-.667.682zM27.333 25.98h5.334v-5.452h-5.334v5.453zm6 1.364h-6.666c-.4 0-.667-.273-.667-.682v-6.816c0-.409.267-.681.667-.681h6.666c.4 0 .667.272.667.681v6.816a.675.675 0 0 1-.667.682z"/>
        <path fill="#C7202F" d="M18.667 32.796H18c-.4 0-.667-.272-.667-.681 0-.41.267-.682.667-.682h.667c.4 0 .666.273.666.682 0 .409-.266.681-.666.681"/>
        <g transform="translate(0 2.796)">
            <mask id="d" fill="#fff">
                <use xlink:href="#c"/>
            </mask>
            <path fill="#C7202F" d="M6.667 1.374v6.611l4-3.612v-3h-4zM6 10.166c-.067 0-.2 0-.267-.068-.266-.068-.4-.34-.4-.613V.692c0-.409.267-.681.667-.681h5.333c.4 0 .667.272.667.681v3.953c0 .205-.067.41-.2.478L6.467 9.962a.712.712 0 0 1-.467.204zM1.4 36.817h11.8c.067-.205.067-.477.067-.682 0-1.5-1.2-2.726-2.667-2.726-.4 0-.667-.273-.667-.682 0-1.5-1.2-2.726-2.666-2.726C5.8 30 4.6 31.228 4.6 32.727c0 .41-.267.682-.667.682-1.466 0-2.666 1.227-2.666 2.726.066.205.066.477.133.682zm12.333 1.363H.933c-.266 0-.533-.136-.6-.409-.2-.545-.333-1.09-.333-1.636 0-2.045 1.467-3.749 3.4-4.021.267-1.977 1.933-3.476 3.933-3.476 2 0 3.667 1.5 3.934 3.476 1.933.272 3.4 1.976 3.4 4.021 0 .546-.134 1.09-.334 1.636-.133.273-.333.409-.6.409z" mask="url(#d)"/>
        </g>
        <path fill="#C7202F" d="M8.667 36.204c-.267 0-.534-.136-.6-.408 0 0-.134-.273-.734-.273-.466 0-.8.409-.8.409-.2.34-.6.409-.933.136-.333-.204-.4-.613-.133-.954.266-.34.933-.954 1.866-.954 1.2 0 1.8.681 1.934 1.09.133.341-.067.75-.4.886-.067.068-.134.068-.2.068M26.733 39.612h11.8c.067-.204.067-.477.067-.681 0-1.5-1.2-2.727-2.667-2.727-.4 0-.666-.272-.666-.681 0-1.5-1.2-2.727-2.667-2.727-1.467 0-2.667 1.227-2.667 2.727 0 .409-.266.681-.666.681-1.467 0-2.667 1.227-2.667 2.727.067.204.067.477.133.681zm12.334 1.364h-12.8c-.267 0-.534-.137-.6-.41-.2-.545-.334-1.09-.334-1.635 0-2.045 1.467-3.749 3.4-4.022.267-1.976 1.934-3.476 3.934-3.476s3.666 1.5 3.933 3.476c1.933.273 3.4 1.977 3.4 4.022 0 .545-.133 1.09-.333 1.636-.134.272-.334.409-.6.409z"/>
        <path fill="#C7202F" d="M34 36.204c-.267 0-.533-.136-.6-.408 0 0-.133-.273-.733-.273-.467 0-.8.409-.8.409-.2.272-.6.409-.934.136-.333-.204-.4-.613-.133-.954.267-.34.933-.954 1.867-.954 1.2 0 1.8.681 1.933 1.09.133.341-.067.75-.4.886-.067.068-.133.068-.2.068M8 6.896H6c-.4 0-.667-.273-.667-.682 0-.409.267-.681.667-.681h2c.4 0 .667.272.667.681 0 .41-.267.682-.667.682M14 27.344H6c-.4 0-.667-.273-.667-.682 0-.409.267-.681.667-.681h8c.4 0 .667.272.667.681 0 .41-.267.682-.667.682M34 27.344h-8c-.4 0-.667-.273-.667-.682 0-.409.267-.681.667-.681h8c.4 0 .667.272.667.681 0 .41-.267.682-.667.682M7.333 21.891h5.334v-1.363H7.333v1.363zm6 1.363H6.667c-.4 0-.667-.273-.667-.681v-2.727c0-.409.267-.681.667-.681h6.666c.4 0 .667.272.667.681v2.727c0 .408-.267.681-.667.681z"/>
        <path fill="#C7202F" d="M10 24.617c-.4 0-.667-.272-.667-.681v-1.363c0-.41.267-.682.667-.682s.667.273.667.682v1.363c0 .409-.267.681-.667.681M27.333 21.891h5.334v-1.363h-5.334v1.363zm6 1.363h-6.666c-.4 0-.667-.273-.667-.681v-2.727c0-.409.267-.681.667-.681h6.666c.4 0 .667.272.667.681v2.727c0 .408-.267.681-.667.681z"/>
        <path fill="#C7202F" d="M30 23.936c-.4 0-.667-.273-.667-.682v-.681c0-.41.267-.682.667-.682s.667.273.667.682v.681c0 .41-.267.682-.667.682"/>
        <path fill="#C7202F" d="M14.6 39.612h10.8c-.067-.204-.067-.477-.067-.681 0-2.045 1.467-3.749 3.4-4.022.267-1.976 1.934-3.476 3.934-3.476 1 0 1.933.41 2.666 1.023V17.8H4.667v14.655c.733-.682 1.666-1.023 2.666-1.023 2 0 3.667 1.5 3.934 3.476 1.933.273 3.4 1.977 3.4 4.022 0 .204 0 .477-.067.681zm11.667 1.364H13.733c-.2 0-.466-.137-.533-.341a.675.675 0 0 1-.067-.614c.134-.34.2-.75.2-1.09 0-1.5-1.2-2.727-2.666-2.727-.4 0-.667-.272-.667-.681 0-1.5-1.2-2.727-2.667-2.727-1.466 0-2.666 1.227-2.666 2.727 0 .34-.267.613-.6.681-.4.069-.734-.272-.734-.681V17.12c0-.41.267-.682.667-.682h32c.4 0 .667.273.667.682v18.403c0 .409-.267.681-.667.681s-.667-.272-.667-.681c0-1.5-1.2-2.727-2.666-2.727-1.467 0-2.667 1.227-2.667 2.727 0 .409-.267.681-.667.681-1.466 0-2.666 1.227-2.666 2.727 0 .34.066.75.2 1.09.066.205.066.478-.067.614s-.267.34-.533.34z"/>
    </g>
</svg>
