<svg xmlns="http://www.w3.org/2000/svg" xmlns:xlink="http://www.w3.org/1999/xlink" width="57" height="60" viewBox="0 0 57 60">
    <defs>
        <path id="a" d="M.068.323v26.263h43.354V.323H.068z"/>
    </defs>
    <g fill="none" fill-rule="evenodd">
        <g transform="translate(0 16.5)">
            <mask id="b" fill="#fff">
                <use xlink:href="#a"/>
            </mask>
            <path fill="#FFF" d="M1.818 14.124h36.214l-9.339 9.305c-.709.694-.709 1.904 0 2.598.355.346.816.559 1.281.559.465 0 .93-.152 1.286-.5l11.63-11.364c.341-.334.532-.78.532-1.253 0-.468-.19-.919-.532-1.253l-.55-.537a1.76 1.76 0 0 0-.466-.455L31.26.843a1.843 1.843 0 0 0-2.567 0c-.709.694-.709 1.648 0 2.342l7.726 7.388H1.818C.816 10.573 0 11.367 0 12.346c0 .98.816 1.778 1.818 1.778z" mask="url(#b)"/>
        </g>
        <path fill="#FFF" d="M56.25 53.087V8.544C56.25 4.25 52.721 0 48.35 0H24.858C20.571 0 16.5 4.097 16.5 8.544v10.603c0 .988.807 1.788 1.803 1.788a1.8 1.8 0 0 0 1.81-1.788V8.544c0-2.461 2.457-4.963 4.746-4.963h23.49c2.391 0 4.288 2.633 4.288 4.963v44.543c0 2.383-1.99 3.327-4.288 3.327H24.86c-2.139 0-4.746-.792-4.746-3.327V42.43c0-.989-.812-1.793-1.81-1.793-.996 0-1.803.804-1.803 1.793v10.656c0 4.202 3.776 6.913 8.359 6.913h23.49c4.685 0 7.901-2.847 7.901-6.913z"/>
    </g>
</svg>
